<?xml version="1.0" encoding="iso-8859-1"?>
<!-- Uploaded to: SVG Repo, www.svgrepo.com, Generator: SVG Repo Mixer Tools -->
<svg height="800px" width="800px" version="1.1" id="Layer_1" xmlns="http://www.w3.org/2000/svg" xmlns:xlink="http://www.w3.org/1999/xlink" 
	 viewBox="0 0 511.989 511.989" xml:space="preserve">
<path style="fill:#5D9CEC;" d="M341.324,139.215H170.657c-5.891,0-10.656,4.765-10.656,10.656v330.117
	c0,17.156,24.89,23.391,33.062,25.438c16.938,4.219,39.296,6.562,62.937,6.562c23.639,0,45.983-2.344,62.92-6.562
	c8.187-2.047,33.076-8.281,33.076-25.438V149.871C351.995,143.98,347.214,139.215,341.324,139.215z"/>
<path style="opacity:0.2;fill:#FFFFFF;enable-background:new    ;" d="M341.324,139.215h-10.672c5.891,0,10.672,4.765,10.672,10.656
	v330.117c0,17.156-24.89,23.391-33.077,25.438c-15.656,3.906-35.938,6.188-57.592,6.516c1.781,0.031,3.547,0.047,5.344,0.047
	c23.639,0,45.983-2.344,62.92-6.562c8.187-2.047,33.076-8.281,33.076-25.438V149.871
	C351.995,143.98,347.214,139.215,341.324,139.215z"/>
<path style="fill:#4A89DC;" d="M318.919,124.45c-16.938-4.234-39.281-6.578-62.92-6.578c-23.64,0-45.999,2.344-62.937,6.578
	c-8.171,2.047-33.062,8.265-33.062,25.421c0,17.172,24.89,23.391,33.062,25.437c16.953,4.234,39.296,6.562,62.937,6.562
	c23.639,0,45.983-2.328,62.92-6.562c8.187-2.046,33.076-8.265,33.076-25.437C351.995,132.715,327.105,126.497,318.919,124.45z"/>
<path style="fill:#E6E9ED;" d="M255.858,181.87c-0.016,0-0.016,0-0.016,0c-5.891,0-10.672-4.781-10.656-10.671l0.141-139.216
	c0-5.891,4.766-10.672,10.672-10.656c5.889,0,10.67,4.781,10.655,10.672l-0.141,139.216
	C266.513,177.105,261.731,181.87,255.858,181.87z"/>
<g>
	<path style="fill:#CCD1D9;" d="M170.657,149.871c-2.172,0-4.359-0.656-6.25-2.016c-4.766-3.453-5.844-10.125-2.391-14.906
		l85.342-117.873c3.453-4.781,10.124-5.843,14.889-2.39c4.766,3.453,5.844,10.125,2.391,14.89l-85.341,117.888
		C177.219,148.34,173.953,149.871,170.657,149.871z"/>
	<path style="fill:#CCD1D9;" d="M341.34,149.871c-3.312,0-6.562-1.531-8.656-4.406L247.358,27.577
		c-3.453-4.766-2.391-11.438,2.375-14.89c4.781-3.453,11.452-2.391,14.905,2.39l85.326,117.873
		c3.453,4.781,2.391,11.453-2.391,14.906C345.682,149.215,343.495,149.871,341.34,149.871z"/>
</g>
<path style="fill:#434A54;" d="M213.327,0v10.656c0,23.531,19.14,42.671,42.671,42.671c23.514,0,42.655-19.14,42.655-42.671V0
	H213.327z"/>
<path style="fill:#E6E9ED;" d="M309.325,330.648c0,26.547-23.875,48.077-53.327,48.077c-29.453,0-53.343-21.53-53.343-48.077
	s23.89-48.062,53.343-48.062C285.45,282.587,309.325,304.101,309.325,330.648z"/>
<path style="fill:#CCD1D9;" d="M255.998,389.396c-35.296,0-63.999-26.358-63.999-58.748c0-32.374,28.702-58.733,63.999-58.733
	c35.28,0,63.999,26.359,63.999,58.733C319.997,363.038,291.278,389.396,255.998,389.396z M255.998,293.259
	c-23.531,0-42.671,16.765-42.671,37.39s19.14,37.405,42.671,37.405c23.514,0,42.655-16.78,42.655-37.405
	S279.513,293.259,255.998,293.259z"/>
<path style="fill:#434A54;" d="M277.325,341.601h-42.67c-5.891,0-10.656-4.781-10.656-10.672s4.766-10.672,10.656-10.672h42.67
	c5.891,0,10.672,4.781,10.672,10.672S283.216,341.601,277.325,341.601z"/>
</svg>