<?xml version="1.0" encoding="iso-8859-1"?>
<!-- Uploaded to: SVG Repo, www.svgrepo.com, Generator: SVG Repo Mixer Tools -->
<svg height="800px" width="800px" version="1.1" id="Layer_1" xmlns="http://www.w3.org/2000/svg" xmlns:xlink="http://www.w3.org/1999/xlink" 
	 viewBox="0 0 512 512" xml:space="preserve">
<g>
	<path style="fill:#FF5050;" d="M273.102,469.779h-34.205c-18.891,0-34.205-15.314-34.205-34.205V230.347
		c0-18.891,15.314-34.205,34.205-34.205h34.205c18.891,0,34.205,15.314,34.205,34.205v205.228
		C307.307,454.465,291.993,469.779,273.102,469.779z"/>
	<path style="fill:#FF5050;" d="M127.733,238.898h17.102c18.891,0,34.205-15.314,34.205-34.205v-8.551
		c0-47.227-38.285-85.511-85.511-85.511l0,0c-47.227,0-85.511,38.285-85.511,85.511v119.716c0,4.722,3.829,8.551,8.551,8.551
		h111.165V238.898z"/>
</g>
<path style="fill:#C84146;" d="M127.733,210.428c0-19.005-16.891-34.065-36.479-30.987c-10.531,1.655-19.285,9.07-23.824,18.715
	l-14.506,30.827c-2.556,5.43-10.703,3.609-10.703-2.392v-30.448c0-41.369,29.379-75.87,68.409-83.794
	c-7.886-1.601-16.164-2.13-24.679-1.386c-44.633,3.898-77.935,43.137-77.935,87.941v116.955c0,4.722,3.829,8.551,8.551,8.551
	v102.614c0,4.722,3.829,8.551,8.551,8.551h85.511c4.722,0,8.551-3.829,8.551-8.551V324.409h8.551V210.428z"/>
<path style="fill:#B4323C;" d="M119.182,324.409H16.568v102.614c0,4.722,3.829,8.551,8.551,8.551h17.102v-76.96
	c0-4.722,3.829-8.551,8.551-8.551h68.409V324.409z"/>
<path style="fill:#FF5050;" d="M127.733,324.409H67.875c-9.445,0-17.102,7.656-17.102,17.102v25.653
	c0,9.445,7.658,17.102,17.102,17.102h51.307c-0.001,0,8.551,0,8.551,0c4.722,0,8.551-3.829,8.551-8.551V332.96
	C136.284,328.238,132.455,324.409,127.733,324.409z"/>
<path style="fill:#C84146;" d="M384.267,238.898h-17.102c-18.891,0-34.205-15.314-34.205-34.205v-8.551
	c0-47.227,38.285-85.511,85.512-85.511l0,0c47.227,0,85.511,38.285,85.511,85.511v119.716c0,4.722-3.829,8.551-8.551,8.551H384.267
	V238.898z"/>
<path style="fill:#FF5050;" d="M384.267,210.428c0-19.005,16.891-34.065,36.479-30.987c10.531,1.655,19.285,9.07,23.823,18.715
	l14.506,30.827c2.556,5.43,10.703,3.609,10.703-2.392v-30.448c0-41.369-29.379-75.87-68.409-83.794
	c7.886-1.601,16.164-2.13,24.679-1.386c44.633,3.898,77.935,43.138,77.935,87.941v116.955c0,4.722-3.829,8.551-8.551,8.551v102.614
	c0,4.722-3.829,8.551-8.551,8.551H401.37c-4.722,0-8.551-3.829-8.551-8.551V324.409h-8.551V210.428z"/>
<g>
	<path style="fill:#C84146;" d="M495.432,324.409H392.818v102.614c0,4.722,3.829,8.551,8.551,8.551h17.102v-76.96
		c0-4.722,3.829-8.551,8.551-8.551h68.409V324.409z"/>
	<path style="fill:#C84146;" d="M384.267,324.409h59.858c9.445,0,17.102,7.656,17.102,17.102v25.653
		c0,9.445-7.658,17.102-17.102,17.102h-51.307c0.001,0-8.551,0-8.551,0c-4.722,0-8.551-3.829-8.551-8.551V332.96
		C375.716,328.238,379.545,324.409,384.267,324.409z"/>
	<path style="fill:#C84146;" d="M238.898,435.574V230.347c0-18.891,15.314-34.205,34.205-34.205h-34.205
		c-18.891,0-34.205,15.314-34.205,34.205v205.228c0,18.891,15.314,34.205,34.205,34.205h34.205
		C254.212,469.779,238.898,454.465,238.898,435.574z"/>
</g>
<path d="M297.775,196.116l-31.79-113.748c8.896-3.869,15.134-12.74,15.134-23.044c0-13.851-11.268-25.119-25.119-25.119
	c-13.851,0-25.119,11.268-25.119,25.119c0,10.304,6.238,19.175,15.134,23.044l-31.79,113.748
	c-10.619,7.676-17.549,20.155-17.549,34.23v205.228c0,23.28,18.941,42.221,42.221,42.221h34.205
	c23.281,0,42.221-18.941,42.221-42.221V230.347C315.324,216.271,308.394,203.792,297.775,196.116z M256,50.238
	c5.01,0,9.086,4.076,9.086,9.086s-4.076,9.086-9.086,9.086c-5.01,0-9.086-4.076-9.086-9.086S250.99,50.238,256,50.238z M256,106.21
	l23.011,82.338c-1.933-0.271-3.904-0.422-5.909-0.422h-34.205c-2.006,0-3.977,0.151-5.909,0.422L256,106.21z M299.29,435.574
	c0,14.44-11.748,26.188-26.188,26.188h-34.205c-14.44,0-26.188-11.748-26.188-26.188V230.347c0-14.44,11.748-26.188,26.188-26.188
	h34.205c14.44,0,26.188,11.748,26.188,26.188V435.574z"/>
<path d="M93.528,102.614C41.956,102.614,0,144.57,0,196.142v119.716c0,6.228,3.458,11.659,8.551,14.489v96.676
	c0,9.136,7.432,16.568,16.568,16.568h85.511c9.136,0,16.568-7.432,16.568-16.568v-34.739h0.534c9.136,0,16.568-7.432,16.568-16.568
	V332.96c0-6.228-3.458-11.659-8.551-14.489v-71.557h9.086c23.28,0,42.221-18.941,42.221-42.221v-8.551
	C187.056,144.57,145.1,102.614,93.528,102.614z M111.165,427.023c0,0.295-0.239,0.534-0.534,0.534H25.119
	c-0.295,0-0.534-0.239-0.534-0.534v-94.597h19.878c-1.098,2.82-1.707,5.882-1.707,9.086v25.653
	c0,13.851,11.268,25.119,25.119,25.119h43.29V427.023z M128.267,375.716c0,0.295-0.239,0.534-0.534,0.534H67.875
	c-5.01,0-9.086-4.076-9.086-9.086v-25.653c0-5.01,4.076-9.086,9.086-9.086h59.858c0.295,0,0.534,0.239,0.534,0.534V375.716z
	 M171.023,204.693c0,14.44-11.748,26.188-26.188,26.188h-9.086v-20.132c0-21.906-17.821-39.727-39.727-39.727
	c-15.144,0-28.76,8.415-35.532,21.96l-8.338,16.676c-1.981,3.96-0.375,8.775,3.585,10.755c3.96,1.981,8.775,0.376,10.755-3.585
	l8.338-16.676c4.04-8.079,12.16-13.097,21.192-13.097c13.064,0,23.693,10.628,23.693,23.693v105.643H16.568
	c-0.295,0-0.534-0.239-0.534-0.534V196.142c0-42.731,34.764-77.495,77.495-77.495s77.495,34.764,77.495,77.495V204.693z"/>
<path d="M39.327,235.312l-4.276,8.552c-1.981,3.96-0.375,8.776,3.585,10.755c1.151,0.576,2.374,0.848,3.579,0.848
	c2.941,0,5.772-1.625,7.177-4.433l4.276-8.552c1.981-3.96,0.375-8.776-3.585-10.755C46.125,229.747,41.307,231.351,39.327,235.312z"
	/>
<path d="M418.472,102.614c-51.572,0-93.528,41.956-93.528,93.528v8.551c0,23.281,18.941,42.221,42.221,42.221h9.086v71.557
	c-5.093,2.829-8.551,8.26-8.551,14.489v42.756c0,9.136,7.432,16.568,16.568,16.568h0.534v34.739c0,9.136,7.432,16.568,16.568,16.568
	h85.511c9.136,0,16.568-7.432,16.568-16.568v-96.676c5.093-2.829,8.551-8.26,8.551-14.489V196.142
	C512,144.57,470.044,102.614,418.472,102.614z M367.165,230.881c-14.44,0-26.188-11.748-26.188-26.188v-8.551
	c0-42.731,34.764-77.495,77.495-77.495s77.495,34.764,77.495,77.495v119.716c0,0.295-0.239,0.534-0.534,0.534H392.284V210.749
	c0-13.064,10.628-23.693,23.693-23.693c9.032,0,17.153,5.018,21.192,13.097l8.338,16.676c1.98,3.96,6.797,5.568,10.755,3.585
	c3.96-1.981,5.566-6.795,3.585-10.755l-8.337-16.676c-6.775-13.545-20.389-21.96-35.533-21.96
	c-21.906,0-39.727,17.821-39.727,39.727v20.132H367.165z M384.267,376.251c-0.295,0-0.534-0.239-0.534-0.534V332.96
	c0-0.295,0.239-0.534,0.534-0.534h59.858c5.01,0,9.086,4.076,9.086,9.086v25.653c0,5.01-4.076,9.086-9.086,9.086H384.267z
	 M486.881,427.557H401.37c-0.295,0-0.534-0.239-0.534-0.534v-34.739h43.29c13.851,0,25.119-11.268,25.119-25.119v-25.653
	c0-3.203-0.609-6.266-1.707-9.086h19.878v94.597C487.415,427.318,487.176,427.557,486.881,427.557z"/>
<path d="M458.333,242.482l4.276,8.552c1.405,2.809,4.235,4.433,7.177,4.433c1.205,0,2.427-0.273,3.579-0.848
	c3.96-1.98,5.566-6.795,3.585-10.755l-4.276-8.552c-1.981-3.96-6.794-5.567-10.755-3.585
	C457.957,233.706,456.352,238.521,458.333,242.482z"/>
<path d="M273.102,230.881c-4.427,0-8.017,3.589-8.017,8.017V256c0,4.427,3.589,8.017,8.017,8.017c4.427,0,8.017-3.589,8.017-8.017
	v-17.102C281.119,234.47,277.53,230.881,273.102,230.881z"/>
<path d="M273.102,282.188c-4.427,0-8.017,3.589-8.017,8.017v68.409c0,4.427,3.589,8.017,8.017,8.017
	c4.427,0,8.017-3.589,8.017-8.017v-68.409C281.119,285.777,277.53,282.188,273.102,282.188z"/>
</svg>