<?xml version="1.0" encoding="iso-8859-1"?>
<!-- Uploaded to: SVG Repo, www.svgrepo.com, Generator: SVG Repo Mixer Tools -->
<svg height="800px" width="800px" version="1.1" id="Layer_1" xmlns="http://www.w3.org/2000/svg" xmlns:xlink="http://www.w3.org/1999/xlink" 
	 viewBox="0 0 511.989 511.989" xml:space="preserve">
<g>
	<path style="fill:#CCD1D9;" d="M159.997,256.007c-5.891,0-10.664-4.781-10.664-10.672V117.338c0-5.891,4.773-10.672,10.664-10.672
		s10.664,4.781,10.664,10.672v127.997C170.661,251.225,165.888,256.007,159.997,256.007z"/>
	<path style="fill:#CCD1D9;" d="M351.992,256.007c-5.891,0-10.655-4.781-10.655-10.672V117.338c0-5.891,4.765-10.672,10.655-10.672
		s10.656,4.781,10.656,10.672v127.997C362.648,251.225,357.883,256.007,351.992,256.007z"/>
</g>
<g>
	<path style="fill:#E6E9ED;" d="M469.334,128.01H42.664c-5.891,0-10.664-4.781-10.664-10.672s4.773-10.672,10.664-10.672h426.67
		c5.875,0,10.656,4.781,10.656,10.672S475.209,128.01,469.334,128.01z"/>
	<path style="fill:#E6E9ED;" d="M469.334,170.665H42.664c-5.891,0-10.664-4.766-10.664-10.656c0-5.906,4.773-10.672,10.664-10.672
		h426.67c5.875,0,10.656,4.766,10.656,10.672C479.99,165.899,475.209,170.665,469.334,170.665z"/>
	<path style="fill:#E6E9ED;" d="M469.334,213.336H42.664c-5.891,0-10.664-4.781-10.664-10.672s4.773-10.656,10.664-10.656h426.67
		c5.875,0,10.656,4.766,10.656,10.656S475.209,213.336,469.334,213.336z"/>
	<path style="fill:#E6E9ED;" d="M469.334,256.007H42.664c-5.891,0-10.664-4.781-10.664-10.672s4.773-10.672,10.664-10.672h426.67
		c5.875,0,10.656,4.781,10.656,10.672S475.209,256.007,469.334,256.007z"/>
</g>
<path style="fill:#5D9CEC;" d="M42.664,85.339h-32C4.773,85.339,0,90.104,0,96.01v191.988c0,5.875,4.773,10.656,10.664,10.656h32
	c5.89,0,10.671-4.781,10.671-10.656V96.01C53.335,90.104,48.554,85.339,42.664,85.339z"/>
<path style="fill:#ED5564;" d="M501.333,85.339h-31.999c-5.906,0-10.688,4.765-10.688,10.671v191.988
	c0,5.875,4.781,10.656,10.688,10.656h31.999c5.875,0,10.656-4.781,10.656-10.656V96.01
	C511.989,90.104,507.208,85.339,501.333,85.339z"/>
<path style="fill:#656D78;" d="M501.333,277.341H10.664C4.773,277.341,0,282.091,0,287.997v127.997
	c0,5.875,4.773,10.656,10.664,10.656h490.668c5.875,0,10.656-4.781,10.656-10.656V287.997
	C511.989,282.091,507.208,277.341,501.333,277.341z"/>
<g>
	<path style="fill:#434A54;" d="M312.463,419.12c-2.094,2.094-3.125,4.812-3.125,7.531h21.312c0-2.719-1.031-5.438-3.109-7.531
		C323.368,414.964,316.619,414.964,312.463,419.12z"/>
	<path style="fill:#434A54;" d="M376.461,419.12c-2.094,2.094-3.125,4.812-3.125,7.531h21.312c0-2.719-1.031-5.438-3.109-7.531
		C387.367,414.964,380.617,414.964,376.461,419.12z"/>
	<path style="fill:#434A54;" d="M455.537,419.12c-4.172-4.156-10.922-4.156-15.078,0c-2.094,2.094-3.125,4.812-3.125,7.531h21.312
		C458.662,423.932,457.615,421.214,455.537,419.12z"/>
	<path style="fill:#434A54;" d="M54.304,419.12c-2.078,2.094-3.125,4.812-3.125,7.531h21.336c0-2.719-1.039-5.438-3.125-7.531
		C65.225,414.964,58.468,414.964,54.304,419.12z"/>
	<path style="fill:#434A54;" d="M118.303,419.12c-2.078,2.094-3.125,4.812-3.125,7.531h21.335c0-2.719-1.039-5.438-3.125-7.531
		C129.224,414.964,122.467,414.964,118.303,419.12z"/>
	<path style="fill:#434A54;" d="M182.301,419.12c-2.078,2.094-3.125,4.812-3.125,7.531h21.335c0-2.719-1.039-5.438-3.125-7.531
		C193.223,414.964,186.465,414.964,182.301,419.12z"/>
	<path style="fill:#434A54;" d="M197.387,284.872c2.086-2.094,3.125-4.812,3.125-7.531h-21.335c0,2.719,1.047,5.438,3.125,7.531
		C186.465,289.029,193.223,289.029,197.387,284.872z"/>
	<path style="fill:#434A54;" d="M133.388,284.872c2.086-2.094,3.125-4.812,3.125-7.531h-21.335c0,2.719,1.047,5.438,3.125,7.531
		C122.467,289.029,129.224,289.029,133.388,284.872z"/>
	<path style="fill:#434A54;" d="M54.304,284.872c4.164,4.156,10.921,4.156,15.085,0c2.086-2.094,3.125-4.812,3.125-7.531H51.179
		C51.179,280.06,52.226,282.779,54.304,284.872z"/>
	<path style="fill:#434A54;" d="M455.537,284.872c2.078-2.094,3.125-4.812,3.109-7.531h-21.312c0,2.719,1.031,5.438,3.125,7.531
		C444.615,289.029,451.365,289.029,455.537,284.872z"/>
	<path style="fill:#434A54;" d="M391.539,284.872c2.078-2.094,3.109-4.812,3.109-7.531h-21.312c0,2.719,1.031,5.438,3.125,7.531
		C380.617,289.029,387.367,289.029,391.539,284.872z"/>
	<path style="fill:#434A54;" d="M327.54,284.872c2.078-2.094,3.109-4.812,3.109-7.531h-21.312c0,2.719,1.031,5.438,3.125,7.531
		C316.619,289.029,323.368,289.029,327.54,284.872z"/>
</g>
<g>
	<path style="fill:#FFCE54;" d="M310.963,338.652c-1.25-3.875-4.594-6.688-8.625-7.281l-25.406-3.688l-11.375-23.031
		c-1.797-3.655-5.5-5.937-9.562-5.937s-7.766,2.281-9.562,5.937l-11.367,23.031l-25.421,3.688c-4.016,0.594-7.359,3.406-8.609,7.281
		c-1.258,3.844-0.211,8.094,2.695,10.906l18.398,17.937l-4.344,25.312c-0.688,4,0.961,8.062,4.242,10.438
		c3.289,2.375,7.641,2.719,11.234,0.812l22.734-11.938l22.733,11.938c1.562,0.812,3.266,1.219,4.953,1.219
		c2.219,0,4.422-0.688,6.281-2.031c3.281-2.375,4.938-6.438,4.25-10.438l-4.344-25.312l18.391-17.937
		C311.166,346.747,312.213,342.497,310.963,338.652z"/>
	<path style="fill:#FFCE54;" d="M159.997,362.652H53.335c-5.891,0-10.671-4.781-10.671-10.656c0-5.906,4.781-10.656,10.671-10.656
		h106.662c5.891,0,10.664,4.75,10.664,10.656C170.661,357.872,165.888,362.652,159.997,362.652z"/>
	<path style="fill:#FFCE54;" d="M458.646,362.652H351.992c-5.891,0-10.655-4.781-10.655-10.656c0-5.906,4.765-10.656,10.655-10.656
		h106.654c5.906,0,10.688,4.75,10.688,10.656C469.334,357.872,464.553,362.652,458.646,362.652z"/>
</g>
</svg>